<svg xmlns="http://www.w3.org/2000/svg" width="35.876" height="39.719" viewBox="0 0 35.876 39.719">
  <defs>
    <style>
      .cls-1 {
        fill: #f7c35a;
        fill-rule: evenodd;
        opacity: 0.9;
      }
    </style>
  </defs>
  <path id="book.svg" class="cls-1" d="M321.875,18.1H293.687a5.046,5.046,0,0,0-5.125,4.963V52.838a5.046,5.046,0,0,0,5.125,4.963h28.188a2.523,2.523,0,0,0,2.562-2.482V20.58A2.523,2.523,0,0,0,321.875,18.1Zm-2.563,33.5a1.261,1.261,0,0,1-1.281,1.241H296.224a2.5,2.5,0,0,1-2.537-2.457V50.332a2.5,2.5,0,0,1,2.537-2.457h21.807a1.261,1.261,0,0,1,1.281,1.241V51.6Zm0-9.848a1.261,1.261,0,0,1-1.281,1.241H300.094a1.262,1.262,0,0,1-1.282-1.241V24.3a1.262,1.262,0,0,1,1.282-1.241h17.937a1.261,1.261,0,0,1,1.281,1.241V41.75Zm-6.406-13.725h-7.687a1.261,1.261,0,0,0-1.281,1.241v2.482a1.261,1.261,0,0,0,1.281,1.241h7.687a1.261,1.261,0,0,0,1.281-1.241V29.265A1.261,1.261,0,0,0,312.906,28.025Z" transform="translate(-288.562 -18.094)"/>
</svg>
